<svg width="290px" height="67px" viewBox="0 0 290 67" version="1.1" xmlns="http://www.w3.org/2000/svg" xmlns:xlink="http://www.w3.org/1999/xlink">
    <!-- Generator: Sketch 61.2 (89653) - https://sketch.com -->
    <title>CTA</title>
    <desc>Created with Sketch.</desc>
    <g id="Page-1" stroke="none" stroke-width="1" fill="none" fill-rule="evenodd">
        <g id="Artboard" transform="translate(-61.000000, -23.000000)">
            <g id="CTA" transform="translate(61.000000, 23.000000)">
                <path d="M33.2,0 L256.5,0 C274.8,0 289.7,14.9 289.7,33.2 C289.7,51.5 274.8,66.4 256.5,66.4 L33.2,66.4 C14.9,66.4 0,51.5 0,33.2 C0,14.8 14.9,0 33.2,0 Z" id="Path" fill="#ff488e" fill-rule="nonzero"></path>
                <g id="Group-5" transform="translate(37.000000, 17.000000)" fill-rule="nonzero">
                    <path d="M44.3700018,0.180000007 L45.1800018,0.180000007 C46.4400018,0.270000011 47.5200019,0.900000036 48.3300019,1.89000008 C49.320002,2.97000012 49.770002,4.41000018 49.770002,5.85000023 L49.770002,23.2200009 L44.0100017,23.2200009 C42.0300017,23.2200009 40.4100016,21.6000009 40.4100016,19.6200008 L40.4100016,4.68000001 C40.4100016,2.25000009 41.9400017,0.360000014 44.0100017,0.180000007" id="Path" fill="#232021"></path>
                    <path d="M64.6200026,0.180000007 L44.4600018,0.180000007 C45.6300018,0.270000011 46.7100019,0.810000032 47.4300019,1.80000007 C48.4200019,2.97000012 49.0500019,4.50000018 49.230002,6.03000024 L49.230002,30.1500012 C49.230002,30.4200012 49.320002,30.6000012 49.500002,30.7800012 L50.760002,31.9500013 C51.120002,32.3100013 51.6600021,32.3100013 52.0200021,31.9500013 L52.9200021,31.1400012 C53.2800021,30.7800012 53.8200021,30.7800012 54.1800022,31.1400012 L55.0800022,31.9500013 C55.4400022,32.3100013 55.9800022,32.3100013 56.3400022,31.9500013 L57.2400023,31.1400012 C57.6000023,30.7800012 58.1400023,30.7800012 58.5000023,31.1400012 L59.3100024,31.9500013 C59.6700024,32.3100013 60.2100024,32.3100013 60.5700024,31.9500013 C60.5700024,31.9500013 60.5700024,31.9500013 60.5700024,31.9500013 L61.4700024,31.0500012 C61.8300025,30.6900012 62.3700025,30.6900012 62.7300025,31.0500012 C62.7300025,31.0500012 62.7300025,31.0500012 62.7300025,31.0500012 L63.5400025,31.8600013 C63.9000025,32.2200013 64.4400026,32.2200013 64.8000026,31.8600013 L65.7000026,31.0500012 C66.0600026,30.6900012 66.6000026,30.6900012 66.9600018,31.0500012 L67.8600027,31.8600013 C68.2200027,32.2200013 68.7600027,32.2200013 69.1200027,31.8600013 L70.0200028,30.6000012 C70.2000028,30.4200012 70.2900028,30.2400012 70.2900028,29.9700012 L70.2900028,5.94000024 C70.3800028,2.79000011 67.8600027,0.180000007 64.6200026,0.180000007 Z M53.9100021,21.4200009 C53.4600021,21.4200009 53.0100021,21.0600008 53.0100021,20.6100008 C53.0100021,20.1600008 53.3700021,19.7100008 53.8200021,19.7100008 C54.2700022,19.7100008 54.7200022,20.0700008 54.7200022,20.5200008 C54.7200022,20.5200008 54.7200022,20.5200008 54.7200022,20.5200008 C54.7200022,21.0600008 54.3600022,21.4200009 53.9100021,21.4200009 Z M53.9100021,17.1900007 C53.4600021,17.1900007 53.1000021,16.8300007 53.1000021,16.3800007 C53.1000021,15.9300006 53.4600021,15.5700006 53.9100021,15.5700006 C54.3600022,15.5700006 54.7200022,15.9300006 54.7200022,16.3800007 C54.7200022,16.7400007 54.3600022,17.1000007 53.9100021,17.1900007 L53.9100021,17.1900007 Z M53.9100021,12.9600005 C53.4600021,12.9600005 53.0100021,12.6000005 53.0100021,12.1500005 C53.0100021,11.7000005 53.3700021,11.2500004 53.8200021,11.2500004 C54.2700022,11.2500004 54.7200022,11.6100005 54.7200022,12.0600005 C54.7200022,12.0600005 54.7200022,12.0600005 54.7200022,12.0600005 C54.7200022,12.5100005 54.3600022,12.8700005 53.9100021,12.9600005 L53.9100021,12.9600005 Z M53.9100021,8.64000034 C53.4600021,8.64000034 53.1000021,8.28000033 53.1000021,7.83000031 C53.1000021,7.38000029 53.4600021,7.02000028 53.9100021,7.02000028 C54.3600022,7.02000028 54.7200022,7.38000029 54.7200022,7.83000031 C54.7200022,8.28000033 54.3600022,8.64000034 53.9100021,8.64000034 L53.9100021,8.64000034 Z M65.3400026,21.4200009 L56.8800023,21.4200009 C56.6100022,21.4200009 56.4300022,21.2400008 56.4300022,20.9700008 C56.4300022,20.7000008 56.6100022,20.5200008 56.8800023,20.5200008 L56.8800023,20.5200008 L65.3400026,20.5200008 C65.6100026,20.5200008 65.7900026,20.7000008 65.7900026,20.9700008 C65.7900026,21.2400008 65.6100026,21.4200009 65.3400026,21.4200009 Z M65.3400026,17.1900007 L56.8800023,17.1900007 C56.6100022,17.1900007 56.4300022,17.0100007 56.4300022,16.7400007 C56.4300022,16.4700007 56.6100022,16.2900006 56.8800023,16.2900006 L65.3400026,16.2900006 C65.6100026,16.2900006 65.7900026,16.4700007 65.7900026,16.7400007 C65.7900026,17.0100007 65.6100026,17.1900007 65.3400026,17.1900007 C65.3400026,17.1900007 65.3400026,17.1900007 65.3400026,17.1900007 Z M65.3400026,12.9600005 L56.8800023,12.9600005 C56.6100022,12.9600005 56.4300022,12.7800005 56.4300022,12.5100005 C56.4300022,12.2400005 56.6100022,12.0600005 56.8800023,12.0600005 L65.3400026,12.0600005 C65.6100026,12.0600005 65.7900026,12.2400005 65.7900026,12.5100005 C65.7900026,12.6900005 65.6100026,12.9600005 65.3400026,12.9600005 C65.3400026,12.9600005 65.3400026,12.9600005 65.3400026,12.9600005 Z M65.3400026,8.64000034 L56.8800023,8.64000034 C56.6100022,8.64000034 56.4300022,8.46000034 56.4300022,8.19000033 C56.4300022,7.92000031 56.6100022,7.74000031 56.8800023,7.74000031 L65.3400026,7.74000031 C65.6100026,7.74000031 65.7900026,7.92000031 65.7900026,8.19000033 C65.7900026,8.46000034 65.6100026,8.64000034 65.3400026,8.64000034 C65.3400026,8.64000034 65.3400026,8.64000034 65.3400026,8.64000034 Z" id="Shape" fill="#FFFFFF"></path>
                    <g id="Group-4" transform="translate(78.210003, 0.000000)" fill="#FFFFFF">
                        <path d="M11.3400005,10.5300004 C11.5200005,11.0700004 11.7000005,11.7000005 11.8800005,12.4200005 C12.0600005,13.1400005 12.3300005,13.8600006 12.5100005,14.5800006 C12.6900005,15.3000006 12.9600005,16.1100006 13.2300005,16.8300007 C13.5000005,17.5500007 13.6800005,18.2700007 13.9500006,18.9000008 C14.1300006,18.1800007 14.3100006,17.4600007 14.4900006,16.6500007 C14.6700006,15.8400006 14.8500006,14.9400006 15.0300006,14.1300006 C15.2100006,13.2300005 15.3900006,12.4200005 15.4800006,11.5200005 C15.6600006,10.6200004 15.7500006,9.81000039 15.9300006,9.00000036 L19.2600008,9.00000036 C18.8100007,11.3400005 18.2700007,13.7700005 17.6400007,16.2000006 C17.0100007,18.6300007 16.3800007,20.9700008 15.5700006,23.1300009 L12.6900005,23.1300009 C12.2400005,21.7800009 11.7900005,20.4300008 11.3400005,18.9900008 C10.8900004,17.5500007 10.4400004,16.1100006 9.9900004,14.6700006 C9.54000038,16.1100006 9.09000036,17.5500007 8.64000034,18.9900008 C8.19000033,20.4300008 7.74000031,21.7800009 7.29000029,23.1300009 L4.41000018,23.1300009 C3.69000015,20.9700008 2.97000012,18.6300007 2.34000009,16.2000006 C1.71000007,13.7700005 1.17000005,11.3400005 0.720000029,9.00000036 L4.14000016,9.00000036 C4.32000017,9.81000039 4.41000018,10.6200004 4.59000018,11.5200005 C4.77000019,12.4200005 4.9500002,13.2300005 5.1300002,14.1300006 C5.31000021,15.0300006 5.49000022,15.8400006 5.67000023,16.6500007 C5.85000023,17.4600007 6.03000024,18.2700007 6.21000025,18.9000008 C6.48000026,18.2700007 6.66000026,17.5500007 6.93000028,16.7400007 C7.20000029,16.0200006 7.38000029,15.2100006 7.6500003,14.4900006 C7.83000031,13.7700005 8.10000032,13.0500005 8.28000033,12.3300005 C8.46000034,11.6100005 8.64000034,10.9800004 8.82000035,10.4400004 L11.3400005,10.4400004 L11.3400005,10.5300004 Z" id="Path"></path>
                        <path d="M30.4200012,17.7300007 C30.4200012,18.5400007 30.3300012,19.3500008 30.0600012,20.0700008 C29.7900012,20.7900008 29.4300012,21.3300008 28.9800012,21.8700009 C28.5300011,22.4100009 27.9900011,22.7700009 27.2700011,23.0400009 C26.6400011,23.3100009 25.920001,23.4900009 25.110001,23.4900009 C24.3000008,23.4900009 23.5800009,23.3100009 22.9500009,23.0400009 C22.3200009,22.7700009 21.7800009,22.4100009 21.2400008,21.8700009 C20.7900008,21.3300008 20.4300008,20.7900008 20.1600008,20.0700008 C19.8900008,19.3500008 19.8000008,18.6300007 19.8000008,17.7300007 C19.8000008,16.9200007 19.8900008,16.1100006 20.1600008,15.3900006 C20.4300008,14.6700006 20.7900008,14.1300006 21.2400008,13.5900005 C21.6900009,13.1400005 22.2300009,12.6900005 22.9500009,12.4200005 C23.5800009,12.1500005 24.3000008,11.9700005 25.110001,11.9700005 C25.920001,11.9700005 26.6400011,12.1500005 27.2700011,12.4200005 C27.9000011,12.6900005 28.4400011,13.0500005 28.9800012,13.5900005 C29.4300012,14.0400006 29.7900012,14.6700006 30.0600012,15.3900006 C30.3300012,16.1100006 30.4200012,16.9200007 30.4200012,17.7300007 Z M27.2700011,17.7300007 C27.2700011,16.8300007 27.0900011,16.0200006 26.7300011,15.4800006 C26.370001,14.9400006 25.830001,14.6700006 25.110001,14.6700006 C24.390001,14.6700006 23.8500009,14.9400006 23.4900009,15.4800006 C23.1300009,16.0200006 22.9500009,16.7400007 22.9500009,17.7300007 C22.9500009,18.6300007 23.1300009,19.4400008 23.4900009,19.9800008 C23.8500009,20.5200008 24.390001,20.7900008 25.110001,20.7900008 C25.830001,20.7900008 26.370001,20.5200008 26.7300011,19.9800008 C27.0900011,19.4400008 27.2700011,18.7200007 27.2700011,17.7300007 Z" id="Shape"></path>
                        <path d="M42.8400017,17.7300007 C42.8400017,18.5400007 42.7500017,19.3500008 42.4800017,20.0700008 C42.2100017,20.7900008 41.8500017,21.3300008 41.4000016,21.8700009 C40.9500016,22.4100009 40.4100016,22.7700009 39.6900016,23.0400009 C38.9700015,23.3100009 38.3400015,23.4900009 37.5300015,23.4900009 C36.7200013,23.4900009 36.0000014,23.3100009 35.3700014,23.0400009 C34.7400014,22.7700009 34.2000014,22.4100009 33.6600013,21.8700009 C33.2100013,21.3300008 32.8500013,20.7900008 32.5800013,20.0700008 C32.3100013,19.3500008 32.2200013,18.6300007 32.2200013,17.7300007 C32.2200013,16.9200007 32.3100013,16.1100006 32.5800013,15.3900006 C32.8500013,14.6700006 33.2100013,14.1300006 33.6600013,13.5900005 C34.1100014,13.1400005 34.6500014,12.6900005 35.3700014,12.4200005 C36.0000014,12.1500005 36.7200013,11.9700005 37.5300015,11.9700005 C38.3400015,11.9700005 39.0600016,12.1500005 39.6900016,12.4200005 C40.3200016,12.6900005 40.8600016,13.0500005 41.4000016,13.5900005 C41.8500017,14.0400006 42.2100017,14.6700006 42.4800017,15.3900006 C42.7500017,16.1100006 42.8400017,16.9200007 42.8400017,17.7300007 Z M39.7800016,17.7300007 C39.7800016,16.8300007 39.6000016,16.0200006 39.2400016,15.4800006 C38.8800015,14.9400006 38.3400015,14.6700006 37.6200015,14.6700006 C36.9000015,14.6700006 36.3600014,14.9400006 36.0000014,15.4800006 C35.6400014,16.0200006 35.4600014,16.7400007 35.4600014,17.7300007 C35.4600014,18.6300007 35.6400014,19.4400008 36.0000014,19.9800008 C36.3600014,20.5200008 36.9000015,20.7900008 37.6200015,20.7900008 C38.3400015,20.7900008 38.8800015,20.5200008 39.2400016,19.9800008 C39.5100016,19.4400008 39.7800016,18.7200007 39.7800016,17.7300007 Z" id="Shape"></path>
                        <g id="Group-3" transform="translate(44.910002, 0.000000)">
                            <polygon id="Path" points="0 9.00000036 3.24000013 9.00000036 3.24000013 23.2200009 0 23.2200009"></polygon>
                            <path d="M6.30000025,12.7800005 C6.84000027,12.6000005 7.4700003,12.5100005 8.28000033,12.3300005 C9.09000036,12.2400005 9.9900004,12.1500005 10.8900004,12.1500005 C11.7900005,12.1500005 12.6000005,12.2400005 13.1400005,12.5100005 C13.6800005,12.7800005 14.2200006,13.0500005 14.5800006,13.5000005 C14.9400006,13.9500006 15.2100002,14.4900006 15.3000006,15.0300006 C15.4800006,15.6600006 15.4800006,16.2900006 15.4800006,17.0100007 L15.4800006,23.2200009 L12.4200005,23.2200009 L12.4200005,17.4600007 C12.4200005,16.4700007 12.3300005,15.7500006 12.0600005,15.3900006 C11.7900005,14.9400006 11.3400005,14.7600006 10.6200004,14.7600006 C10.4400004,14.7600006 10.1700004,14.7600006 9.90000039,14.7600006 C9.63000038,14.7600006 9.45000038,14.7600006 9.27000037,14.8500006 L9.27000037,23.2200009 L6.21000025,23.2200009 L6.21000025,12.7800005 L6.30000025,12.7800005 Z" id="Path"></path>
                            <path d="M20.9700008,23.2200009 C20.2500008,21.8700009 19.5300008,20.2500008 18.8100007,18.4500007 C18.0900007,16.6500007 17.3700007,14.6700006 16.7400007,12.5100005 L19.9800008,12.5100005 C20.1600008,13.0500005 20.2500008,13.5900005 20.4300008,14.2200006 C20.6100008,14.8500006 20.7900008,15.4800006 20.9700008,16.1100006 C21.1500008,16.7400007 21.3300008,17.3700007 21.6000009,18.0000007 C21.7800009,18.6300007 21.9600009,19.1700008 22.2300009,19.6200008 C22.4100009,19.1700008 22.5900009,18.5400007 22.7700009,18.0000007 C22.9500009,17.4600007 23.2200009,16.7400007 23.4000009,16.1100006 C23.5800009,15.4800006 23.7600009,14.8500006 23.940001,14.2200006 C24.120001,13.5900005 24.300001,13.0500005 24.390001,12.5100005 L27.5400011,12.5100005 C26.9100011,14.6700006 26.190001,16.6500007 25.470001,18.4500007 C24.750001,20.2500008 24.030001,21.8700009 23.3100009,23.2200009 L20.9700008,23.2200009 Z" id="Path"></path>
                            <g id="Group" transform="translate(28.080001, 7.020000)">
                                <path d="M11.0700004,10.7100004 C11.0700004,11.5200005 10.9800004,12.3300005 10.7100004,13.0500005 C10.4400004,13.7700005 10.0800004,14.3100006 9.63000038,14.8500006 C9.18000036,15.3900006 8.64000034,15.7500006 7.92000031,16.0200006 C7.29000029,16.2900006 6.57000026,16.4700007 5.76000023,16.4700007 C4.95000002,16.4700007 4.23000017,16.2900006 3.60000014,16.0200006 C2.97000012,15.7500006 2.4300001,15.3900006 1.89000008,14.8500006 C1.44000006,14.3100006 1.08000004,13.7700005 0.810000032,13.0500005 C0.540000021,12.3300005 0.450000018,11.6100005 0.450000018,10.7100004 C0.450000018,9.90000039 0.540000021,9.09000036 0.810000032,8.37000033 C1.08000004,7.6500003 1.44000006,7.11000028 1.89000008,6.57000026 C2.34000009,6.12000024 2.88000011,5.67000023 3.60000014,5.40000021 C4.23000017,5.1300002 4.95000002,4.9500002 5.76000023,4.9500002 C6.57000026,4.9500002 7.29000029,5.1300002 7.92000031,5.40000021 C8.55000034,5.67000023 9.09000036,6.03000024 9.63000038,6.57000026 C10.0800004,7.02000028 10.4400004,7.6500003 10.7100004,8.37000033 C10.8900004,9.09000036 11.0700004,9.90000039 11.0700004,10.7100004 Z M7.92000031,10.7100004 C7.92000031,9.81000039 7.74000031,9.00000036 7.38000029,8.46000034 C7.02000028,7.92000031 6.48000026,7.6500003 5.76000023,7.6500003 C5.0400002,7.6500003 4.50000018,7.92000031 4.14000016,8.46000034 C3.78000015,9.00000036 3.60000014,9.72000039 3.60000014,10.7100004 C3.60000014,11.6100005 3.78000015,12.4200005 4.14000016,12.9600005 C4.50000018,13.5000005 5.0400002,13.7700005 5.76000023,13.7700005 C6.48000026,13.7700005 7.02000028,13.5000005 7.38000029,12.9600005 C7.74000031,12.4200005 7.92000031,11.7000005 7.92000031,10.7100004 Z" id="Shape"></path>
                                <path d="M16.7400007,2.25000009 C16.7400007,2.79000011 16.5600007,3.24000013 16.2000006,3.60000014 C15.8400006,3.96000016 15.3900006,4.05000016 14.9400006,4.05000016 C14.4900006,4.05000016 14.0400006,3.87000015 13.6800005,3.60000014 C13.3200005,3.24000013 13.1400005,2.88000011 13.1400005,2.25000009 C13.1400005,1.71000007 13.3200005,1.26000005 13.6800005,0.900000036 C14.0400006,0.540000021 14.4900006,0.450000018 14.9400006,0.450000018 C15.3900006,0.450000018 15.8400006,0.630000025 16.2000006,0.900000036 C16.5600007,1.26000005 16.7400007,1.71000007 16.7400007,2.25000009 Z M16.4700007,16.2000006 L13.4100005,16.2000006 L13.4100005,5.40000021 L16.4700007,5.40000021 L16.4700007,16.2000006 Z" id="Shape"></path>
                            </g>
                            <path d="M46.8900019,17.8200007 C46.8900019,17.0100007 46.9800019,16.2900006 47.2500019,15.6600006 C47.5200019,14.9400006 47.8800019,14.4000006 48.3300019,13.8600006 C48.7800019,13.3200005 49.410002,12.9600005 50.040002,12.6000005 C50.760002,12.3300005 51.480002,12.1500005 52.3800021,12.1500005 C52.9200021,12.1500005 53.4600021,12.2400005 54.0000021,12.3300005 C54.5400022,12.4200005 54.9000022,12.6000005 55.3500022,12.7800005 L54.7200022,15.2100006 C54.4500022,15.1200006 54.0900021,15.0300006 53.8200021,14.9400006 C53.4600021,14.8500006 53.1000021,14.8500006 52.6500021,14.8500006 C51.7500021,14.8500006 51.030002,15.1200006 50.670002,15.6600006 C50.220002,16.2000006 50.040002,16.9200007 50.040002,17.9100007 C50.040002,18.9000008 50.220002,19.6200008 50.670002,20.1600008 C51.120002,20.7000008 51.8400021,20.9700008 52.8300021,20.9700008 C53.1900021,20.9700008 53.6400021,20.9700008 54.0000021,20.8800008 C54.4500022,20.7900008 54.8100022,20.7000008 55.1700022,20.5200008 L55.6200022,23.0400009 C55.2600022,23.2200009 54.8100022,23.3100009 54.2700022,23.4000009 C53.7300021,23.4900009 53.1900021,23.5800009 52.4700021,23.5800009 C51.480002,23.5800009 50.670002,23.4000009 49.950002,23.1300009 C49.230002,22.8600009 48.6900019,22.4100009 48.2400019,21.9600009 C47.7900019,21.5100009 47.4300019,20.8800008 47.2500019,20.1600008 C47.0700019,19.4400008 46.8900019,18.6300007 46.8900019,17.8200007 Z" id="Path"></path>
                            <path d="M56.6100022,17.9100007 C56.6100022,16.9200007 56.7900023,16.1100006 57.0600023,15.3900006 C57.3300023,14.6700006 57.7800023,14.0400006 58.2300023,13.5900005 C58.6800023,13.1400005 59.2200024,12.7800005 59.8500024,12.5100005 C60.4800024,12.2400005 61.1100022,12.1500005 61.7400025,12.1500005 C63.2700025,12.1500005 64.4400026,12.6000005 65.3400026,13.5900005 C66.2400026,14.4900006 66.6900027,15.9300006 66.6900027,17.7300007 C66.6900027,17.9100007 66.6900027,18.0900007 66.6900027,18.2700007 C66.6900027,18.4500007 66.6900027,18.6300007 66.6900027,18.8100007 L59.7600024,18.8100007 C59.8500024,19.4400008 60.1200024,19.9800008 60.6600024,20.3400008 C61.2000024,20.7000008 61.9200025,20.8800008 62.7300025,20.8800008 C63.2700025,20.8800008 63.8100025,20.7900008 64.3500026,20.7000008 C64.8900026,20.6100008 65.3400026,20.4300008 65.7000026,20.3400008 L66.1500026,22.8600009 C65.9700026,22.9500009 65.7900026,23.0400009 65.5200026,23.1300009 C65.2500026,23.2200009 64.9800026,23.3100009 64.6200026,23.3100009 C64.2600026,23.3100009 63.9000025,23.4000009 63.5400025,23.4900009 C63.1800025,23.4900009 62.7300025,23.5800009 62.3700025,23.5800009 C61.3800024,23.5800009 60.5700024,23.4000009 59.8500024,23.1300009 C59.1300023,22.8600009 58.5000023,22.4100009 58.0500023,21.9600009 C57.6000023,21.4200009 57.2400023,20.8800008 56.9700023,20.1600008 C56.7000023,19.4400008 56.6100022,18.6300007 56.6100022,17.9100007 Z M63.8100025,16.7400007 C63.8100025,16.4700007 63.7200025,16.2000006 63.7200025,16.0200006 C63.6300025,15.7500006 63.5400025,15.5700006 63.3600025,15.3900006 C63.1800025,15.2100006 63.0000025,15.0300006 62.7300025,14.9400006 C62.4600025,14.8500006 62.1900025,14.7600006 61.8300025,14.7600006 C61.4700024,14.7600006 61.2000024,14.8500006 60.9300024,14.9400006 C60.6600024,15.0300006 60.4800024,15.2100006 60.3000024,15.3900006 C60.1200024,15.5700006 60.0300024,15.8400006 59.9400024,16.0200006 C59.8500024,16.2900006 59.7600024,16.5600007 59.7600024,16.8300007 L63.8100025,16.8300007 L63.8100025,16.7400007 Z" id="Shape"></path>
                            <g id="Group-2" transform="translate(67.140003, 0.180000)">
                                <path d="M18.0000007,5.67000023 C18.2700007,5.94000024 18.4500007,6.39000025 18.3600007,6.75000027 C18.3600007,7.20000029 18.2700007,7.5600003 18.0000007,7.83000031 C17.7300007,8.10000032 17.3700007,8.28000033 17.0100007,8.28000033 C16.6500007,8.28000033 16.2900006,8.19000033 16.0200006,7.83000031 C15.7500006,7.5600003 15.5700006,7.11000028 15.6600006,6.75000027 C15.6600006,6.30000025 15.7500006,5.94000024 16.0200006,5.67000023 C16.2900006,5.40000021 16.6500007,5.22000021 17.0100007,5.22000021 C17.3700007,5.22000021 17.7300007,5.40000021 18.0000007,5.67000023 Z" id="Path"></path>
                                <path d="M19.3500008,3.19744244e-15 L3.60000014,3.19744244e-15 C1.62000006,3.19744244e-15 0,1.62000006 0,3.60000014 L0,9.9900004 C0,11.9700005 1.62000006,13.5900005 3.60000014,13.5900005 L19.3500008,13.5900005 C21.3300008,13.5900005 22.9500009,11.9700005 22.9500009,9.9900004 L22.9500009,3.60000014 C22.9500009,1.62000006 21.3300008,3.19744244e-15 19.3500008,3.19744244e-15 Z M8.73000035,7.20000029 C8.46000034,7.5600003 8.10000032,7.92000031 7.6500003,8.10000032 C7.11000028,8.28000033 6.57000026,8.37000033 6.03000024,8.37000033 L4.59000018,8.37000033 L4.59000018,10.3500004 L2.97000012,10.3500004 L2.97000012,3.24000013 L6.03000024,3.24000013 C6.57000026,3.24000013 7.11000028,3.33000013 7.6500003,3.51000014 C8.10000032,3.69000015 8.46000034,4.05000016 8.73000035,4.41000018 C9.00000036,4.86000019 9.09000036,5.31000021 9.09000036,5.76000023 C9.09000036,6.30000025 9.00000036,6.84000027 8.73000035,7.20000029 L8.73000035,7.20000029 Z M13.5900005,5.49000022 L13.2300005,5.49000022 C12.8700005,5.49000022 12.4200005,5.58000022 12.1500005,5.85000023 C11.8800005,6.21000025 11.7000005,6.57000026 11.7900005,7.02000028 L11.7900005,9.54000038 L10.1700004,9.54000038 L10.1700004,4.05000016 L11.7000005,4.05000016 L11.7000005,4.77000019 C11.8800005,4.50000018 12.1500005,4.32000017 12.4200005,4.14000016 C12.7800005,3.96000016 13.1400005,3.96000016 13.5000005,3.96000016 L13.5000005,5.49000022 L13.5900005,5.49000022 Z M19.6200008,8.19000033 C19.3500008,8.64000034 18.9900008,9.00000036 18.5400007,9.18000036 C18.0900007,9.45000038 17.5500007,9.54000038 17.0100007,9.54000038 C16.4700007,9.54000038 15.9300006,9.45000038 15.4800006,9.18000036 C15.0300006,8.91000035 14.6700006,8.64000034 14.4000006,8.19000033 C13.8600006,7.29000029 13.8600006,6.21000025 14.4000006,5.31000021 C14.6700006,4.86000019 15.0300006,4.50000018 15.4800006,4.32000017 C15.9300006,4.05000016 16.4700007,3.96000016 17.0100007,3.96000016 C17.5500007,3.96000016 18.0900007,4.05000016 18.5400007,4.32000017 C18.9900008,4.59000018 19.3500008,4.86000019 19.6200008,5.31000021 C20.0700008,6.21000025 20.0700008,7.29000029 19.6200008,8.19000033 L19.6200008,8.19000033 Z M5.94000024,4.59000018 L4.59000018,4.59000018 L4.59000018,7.11000028 L5.94000024,7.11000028 C6.30000025,7.11000028 6.75000027,7.02000028 7.02000028,6.84000027 C7.29000029,6.57000026 7.38000029,6.30000025 7.38000029,5.94000024 C7.38000029,5.58000022 7.29000029,5.22000021 7.02000028,5.0400002 C6.75000027,4.68000019 6.39000025,4.50000018 5.94000024,4.59000018 Z" id="Shape"></path>
                            </g>
                        </g>
                    </g>
                    <g id="Group" transform="translate(0.000000, 8.820000)" fill="#FFFFFF">
                        <path d="M8.01000032,8.73000035 C7.92000031,8.73000035 7.83000031,8.64000034 7.83000031,8.55000034 L7.83000031,6.93000028 C7.83000031,6.84000027 7.92000031,6.75000027 8.01000032,6.75000027 L13.9500006,6.75000027 C14.13,6.75000027 14.2200006,6.84000027 14.2200006,7.02000028 C14.13,11.7000005 12.0600005,14.5800006 7.6500003,14.5800006 C3.42000014,14.5800006 0.630000025,11.7000005 0.630000025,7.29000029 C0.630000025,2.97000012 3.60000014,0 7.92000031,0 C10.1700004,0 11.7900005,0.720000029 13.0500005,1.89000008 C13.1400005,1.98000008 13.1400005,2.07000008 13.0500005,2.16000009 L11.7900005,3.69000015 C11.7900005,3.69000015 11.7000005,3.78000015 11.7000005,3.78000015 C11.6100005,3.78000015 11.6100005,3.78000015 11.5200005,3.69000015 C10.8900004,3.15000013 9.63000003,2.34000009 7.92000031,2.34000009 C5.0400002,2.34000009 3.06000012,4.32000017 3.06000012,7.20000029 C3.06000012,10.0800004 4.86000019,12.0600005 7.6500003,12.0600005 C9.90000039,12.0600005 11.3400005,10.8900004 11.7900005,8.73000035 L8.01000032,8.73000035 Z" id="Path"></path>
                        <path d="M20.8800008,12.4200005 C21.8700009,12.4200005 22.5900009,12.0600005 23.0400009,11.7000005 C23.1300009,11.6100005 23.2200009,11.6100005 23.2200009,11.6100005 C23.2200009,11.6100005 23.3100009,11.6100005 23.4000009,11.7000005 L24.5700006,12.9600005 C24.660001,13.0500005 24.660001,13.1400005 24.5700006,13.2300005 C23.6700009,14.2200006 22.3200009,14.5800006 20.7000008,14.5800006 C17.6400007,14.5800006 15.5700006,12.6000005 15.5700006,9.54000038 C15.5700006,6.57000026 17.5500007,4.50000018 20.5200008,4.50000018 C23.4900009,4.50000018 25.560001,6.30000025 25.470001,10.2600004 C25.470001,10.3500004 25.380001,10.4400004 25.290001,10.4400004 L18.0000007,10.4400004 C18.4500007,11.6100005 19.3500008,12.4200005 20.8800008,12.4200005 Z M23.1300009,8.73000035 C22.8600009,7.5600003 21.9600009,6.75000027 20.6100008,6.75000027 C19.1700008,6.75000027 18.3600007,7.5600003 18.0900007,8.73000035 L23.1300009,8.73000035 Z" id="Shape"></path>
                        <path d="M31.1400012,12.1500005 C31.4100012,12.1500005 31.8600013,11.8800005 31.9500013,11.7900005 C31.9500013,11.7900005 32.0400013,11.7900005 32.0400013,11.7900005 C32.1300013,11.7900005 32.2200013,11.7900005 32.2200013,11.8800005 L32.8500013,13.5000005 C32.9400013,13.6800005 32.8500013,13.7700005 32.7600013,13.8600006 C32.2200013,14.3100006 31.4100012,14.4900006 30.6900012,14.4900006 C28.9800012,14.4900006 27.9900011,13.2300005 27.9900011,11.1600004 L27.9900011,6.84000027 L26.7300011,6.84000027 C26.6400011,6.84000027 26.5500011,6.75000027 26.5500011,6.66000026 L26.5500011,4.86000019 C26.5500011,4.77000019 26.6400011,4.68000019 26.7300011,4.68000019 L27.9900011,4.68000019 L27.9900011,1.71000007 C27.9900011,1.62000006 28.0800011,1.53000006 28.1700011,1.53000006 L30.0600012,1.53000006 C30.1500012,1.53000006 30.2400012,1.62000006 30.2400012,1.71000007 L30.2400012,4.68000019 L32.2200013,4.68000019 C32.3100013,4.68000019 32.4000013,4.77000019 32.4000013,4.86000019 L32.4000013,6.66000026 C32.4000013,6.75000027 32.3100013,6.84000027 32.2200013,6.84000027 L30.2400012,6.84000027 L30.2400012,9.9900004 C30.3300012,11.7000005 30.5100012,12.1500005 31.1400012,12.1500005 Z" id="Path"></path>
                    </g>
                </g>
                <g id="Group" transform="translate(131.000000, 15.000000)"></g>
            </g>
        </g>
    </g>
</svg>