<svg xmlns="http://www.w3.org/2000/svg" xmlns:xlink="http://www.w3.org/1999/xlink" viewBox="0 0 515.7 122.95"><defs><style>.cls-1{fill:#212428;}.cls-2{fill:#488eff;}.cls-3{fill:url(#linear-gradient);}.cls-4{fill:#fff;}</style><linearGradient id="linear-gradient" x1="24.72" y1="93.97" x2="10.72" y2="-1.36" gradientUnits="userSpaceOnUse"><stop offset="0.11" stop-color="#374051"/><stop offset="0.67" stop-color="#212428"/></linearGradient></defs><title>logo-type</title><g id="Layer_2" data-name="Layer 2"><g id="Layer_1-2" data-name="Layer 1"><path class="cls-1" d="M179.49,18.09A44.27,44.27,0,0,0,182,25.64c1,2.52,1.51,5.54,2.52,8.06a49.44,49.44,0,0,1,2.52,8.06c1,2.52,1.51,5,2.52,7.55.5-2.52,1.51-5,2-8.06s1.51-6,2-9.07,1.51-6.55,2-9.57,1-6.55,1.51-9.57h9.08c-1.51,8.56-3.53,17.12-5.55,24.68s-4,15.61-6.56,22.66h-8.57a302.75,302.75,0,0,1-10.09-30.22c-1.51,5.54-3.53,10.58-5,15.61s-3.53,10.07-5,14.61H157.3c-2.52-7.05-4.54-14.61-6.56-22.66S147.21,21.61,145.19,13h9.08c.5,3,1,6.55,1.51,9.57s1.51,6.55,2,9.57,1.51,6,2,9.07,1.51,5.54,2,8.06c1-2.52,1.51-5,2.52-7.55a37.7,37.7,0,0,0,2.52-8.06c1-2.52,1.51-5.54,2.52-8.06a41.92,41.92,0,0,0,2-7.55Z"/><path class="cls-1" d="M244.55,42.26a30.45,30.45,0,0,1-1,7.55,17.41,17.41,0,0,1-3.53,6,22.39,22.39,0,0,1-5.55,4,17.26,17.26,0,0,1-14.12,0,14.3,14.3,0,0,1-5.55-4,17.4,17.4,0,0,1-3.53-6,20.18,20.18,0,0,1-1.51-7.55,16.8,16.8,0,0,1,1.51-7.55c1-2,2-4.53,3.53-6a22.39,22.39,0,0,1,5.55-4,17.25,17.25,0,0,1,14.12,0,14.3,14.3,0,0,1,5.55,4,17.41,17.41,0,0,1,3.53,6A34.22,34.22,0,0,1,244.55,42.26Zm-8.57,0a14.39,14.39,0,0,0-2.52-8.56,8.62,8.62,0,0,0-13.11,0,14.39,14.39,0,0,0-2.52,8.56,14.39,14.39,0,0,0,2.52,8.56,8.62,8.62,0,0,0,13.11,0A14.39,14.39,0,0,0,236,42.26Z"/><path class="cls-1" d="M285.91,42.26a30.44,30.44,0,0,1-1,7.55,17.41,17.41,0,0,1-3.53,6,22.39,22.39,0,0,1-5.55,4,17.26,17.26,0,0,1-14.12,0,14.3,14.3,0,0,1-5.55-4,17.41,17.41,0,0,1-3.53-6,20.19,20.19,0,0,1-1.51-7.55,16.8,16.8,0,0,1,1.51-7.55c1-2,2-4.53,3.53-6a22.39,22.39,0,0,1,5.55-4,17.25,17.25,0,0,1,14.12,0,14.3,14.3,0,0,1,5.55,4,17.41,17.41,0,0,1,3.53,6A34.22,34.22,0,0,1,285.91,42.26Zm-8.57,0a14.39,14.39,0,0,0-2.52-8.56,8.62,8.62,0,0,0-13.11,0,14.39,14.39,0,0,0-2.52,8.56,14.39,14.39,0,0,0,2.52,8.56,8.62,8.62,0,0,0,13.11,0A14.39,14.39,0,0,0,277.34,42.26Z"/><path class="cls-2" d="M295,12.55h8.57V60.39H295Z"/><path class="cls-2" d="M314.66,25.64a52.19,52.19,0,0,1,6.05-1.51,46.19,46.19,0,0,1,8.57-.5,30.59,30.59,0,0,1,7.57,1,11,11,0,0,1,4.54,3.53,15.74,15.74,0,0,1,2.52,5,26.56,26.56,0,0,1,.5,6.55V59.89h-8.07V40.75a15.5,15.5,0,0,0-.5-5,7.27,7.27,0,0,0-1-3.53,5,5,0,0,0-2.52-2,7.48,7.48,0,0,0-3.53-.5h-3.53a10.22,10.22,0,0,0-2.52.5V59.38h-8.57V25.64Z"/><path class="cls-2" d="M363.08,60.39c-2.52-4.53-4.54-10.07-7.06-16.12a179.78,179.78,0,0,1-6.56-19.64h9.08c.5,2,1,4,1.51,6.55s1.51,4.53,2,7.05a25.27,25.27,0,0,0,2.52,6.55,28.35,28.35,0,0,1,2,6,41.94,41.94,0,0,0,2-6,25.18,25.18,0,0,1,2.52-6.55,28.82,28.82,0,0,0,2-7.05c.5-2.52,1.51-4.53,2-6.55h8.57a179.2,179.2,0,0,1-6.56,19.64c-2.52,6-4.54,11.58-7.06,16.12Z"/><path class="cls-2" d="M422.09,42.26a30.43,30.43,0,0,1-1,7.55,17.36,17.36,0,0,1-3.53,6,22.43,22.43,0,0,1-5.55,4,17.26,17.26,0,0,1-14.12,0,14.31,14.31,0,0,1-5.55-4,17.4,17.4,0,0,1-3.53-6,20.18,20.18,0,0,1-1.51-7.55,16.79,16.79,0,0,1,1.51-7.55c1-2,2-4.53,3.53-6a22.4,22.4,0,0,1,5.55-4,17.25,17.25,0,0,1,14.12,0,14.32,14.32,0,0,1,5.55,4,17.36,17.36,0,0,1,3.53,6A34.2,34.2,0,0,1,422.09,42.26Zm-8.57,0A14.38,14.38,0,0,0,411,33.7a8.62,8.62,0,0,0-13.11,0,14.39,14.39,0,0,0-2.52,8.56,14.39,14.39,0,0,0,2.52,8.56,8.62,8.62,0,0,0,13.11,0A14.39,14.39,0,0,0,413.52,42.26Z"/><path class="cls-2" d="M439.74,14.06c0,1.51-.5,3-1.51,3.53a4.88,4.88,0,0,1-7.06,0,4.57,4.57,0,0,1-1.51-3.53,5.71,5.71,0,0,1,1.51-4,4.88,4.88,0,0,1,7.06,0A5.71,5.71,0,0,1,439.74,14.06Zm-1,46.33h-8.57V24.63h8.57Z"/><path class="cls-2" d="M447.31,42.26a38.81,38.81,0,0,1,1-7.55,17.4,17.4,0,0,1,3.53-6,22.43,22.43,0,0,1,5.55-4A16.87,16.87,0,0,1,465,23.12a20.49,20.49,0,0,1,9.58,2l-2,7.05a7.16,7.16,0,0,0-3-1,9.85,9.85,0,0,0-4-.5,10.28,10.28,0,0,0-7.57,3c-2,2-2.52,5-2.52,8.56a14.4,14.4,0,0,0,2.52,8.56c1.51,2,4.54,3,8.07,3a9.85,9.85,0,0,0,4-.5,32.19,32.19,0,0,0,3.53-1l1,7.05a9.5,9.5,0,0,1-4,1,25.09,25.09,0,0,1-13.62-1,11.39,11.39,0,0,1-5.55-4,23.8,23.8,0,0,1-3.53-6C447.81,47.8,447.31,45.28,447.31,42.26Z"/><path class="cls-2" d="M480.09,42.76a23.54,23.54,0,0,1,1.51-8.56,17.41,17.41,0,0,1,3.53-6,13.06,13.06,0,0,1,5.55-3.53,12.81,12.81,0,0,1,6.05-1c5,0,9.08,1.51,11.6,4.53,3,3,4,7.55,4,13.6v3H488.67a7.48,7.48,0,0,0,3,6.55,12.84,12.84,0,0,0,8.07,2.52,18.93,18.93,0,0,0,5.55-.5,15.62,15.62,0,0,1,4-1l1,7.05c-.5,0-1,.5-2,.5s-1.51.5-2.52.5-2,.5-3.53.5h-3.53a19.24,19.24,0,0,1-8.07-1.51,14.3,14.3,0,0,1-5.55-4,17.41,17.41,0,0,1-3.53-6A12.61,12.61,0,0,1,480.09,42.76Zm24.21-4a6.38,6.38,0,0,0-.5-3l-1.51-3a5,5,0,0,0-2.52-2,6.41,6.41,0,0,0-3-.5,7.49,7.49,0,0,0-3.53.5,5,5,0,0,0-2.52,2c-.5,1-1,1.51-1.51,2.52a6.38,6.38,0,0,0-.5,3H504.3Z"/><path class="cls-3" d="M35.86,22V88.37h-22A13.82,13.82,0,0,1,0,74.55V17.31C0,8,6,.71,13.75,0h4.78a17.23,17.23,0,0,1,12,6.64C34.07,10.67,35.86,16,35.86,22Z"/><path class="cls-2" d="M115.92,22.22v92a3.45,3.45,0,0,1-1,2.46l-4.71,4.65a3.45,3.45,0,0,1-4.85,0L102,118a3.45,3.45,0,0,0-4.85,0l-3.31,3.27a3.45,3.45,0,0,1-4.85,0l-3.21-3.17a3.45,3.45,0,0,0-5,.1l-3.31,3.55a3.45,3.45,0,0,1-5,.1l-3.21-3.17a3.45,3.45,0,0,0-4.85,0L61.21,122a3.45,3.45,0,0,1-4.85,0L53,118.68a3.45,3.45,0,0,0-4.85,0L44.88,122A3.45,3.45,0,0,1,40,122l-4.71-4.65a3.45,3.45,0,0,1-1-2.46V22.22c0-2.61-1.69-9.13-6.8-16.13A15.33,15.33,0,0,0,16,0H13.76A13.78,13.78,0,0,1,16,0H93.47A22.51,22.51,0,0,1,115.92,22.22Z"/><path class="cls-4" d="M97.81,31a1.63,1.63,0,0,1-1.63,1.63H63.58a1.63,1.63,0,1,1,0-3.26h32.6A1.63,1.63,0,0,1,97.81,31Z"/><path class="cls-4" d="M97.81,47.27a1.63,1.63,0,0,1-1.63,1.63H63.58a1.63,1.63,0,1,1,0-3.26h32.6A1.63,1.63,0,0,1,97.81,47.27Z"/><path class="cls-4" d="M55.43,61.95a3.26,3.26,0,1,1-3.26-3.26A3.26,3.26,0,0,1,55.43,61.95Z"/><path class="cls-4" d="M55.43,45.64a3.26,3.26,0,1,1-3.26-3.26A3.26,3.26,0,0,1,55.43,45.64Z"/><path class="cls-4" d="M55.43,29.34a3.26,3.26,0,1,1-3.26-3.26A3.26,3.26,0,0,1,55.43,29.34Z"/><path class="cls-4" d="M55.43,78.25A3.26,3.26,0,1,1,52.16,75,3.26,3.26,0,0,1,55.43,78.25Z"/><path class="cls-4" d="M97.81,63.58a1.63,1.63,0,0,1-1.63,1.63H63.58a1.63,1.63,0,1,1,0-3.26h32.6A1.63,1.63,0,0,1,97.81,63.58Z"/><path class="cls-4" d="M97.81,79.88a1.63,1.63,0,0,1-1.63,1.63H63.58a1.63,1.63,0,1,1,0-3.26h32.6A1.63,1.63,0,0,1,97.81,79.88Z"/><path class="cls-1" d="M150.5,92.55v7.95H147.2V80h7a7.5,7.5,0,0,1,5.32,1.68,6,6,0,0,1,1.78,4.61,5.88,5.88,0,0,1-1.83,4.57,7.57,7.57,0,0,1-5.28,1.67Zm7.4-6.24a3.47,3.47,0,0,0-1-2.65,4.45,4.45,0,0,0-3.12-.91H150.5v7.1h3.31Q157.9,89.85,157.9,86.31Z"/><path class="cls-1" d="M180.47,95.63a8.72,8.72,0,0,1-3.68,3.58,12.25,12.25,0,0,1-5.79,1.28h-6.84V80H171a12.38,12.38,0,0,1,5.79,1.26,8.66,8.66,0,0,1,3.68,3.55,12.2,12.2,0,0,1,0,10.8Zm-4.07,0a8.28,8.28,0,0,0,0-10.73,7.8,7.8,0,0,0-5.66-1.91h-3.28V97.5h3.28A7.79,7.79,0,0,0,176.4,95.59Z"/><path class="cls-1" d="M197.16,80v2.67h-8.79V89h7.25v2.55h-7.25v8.9h-3.31V80Z"/><path class="cls-1" d="M210.21,80v20.47h-3.31V80Z"/><path class="cls-1" d="M227.61,86a7.24,7.24,0,0,1,1.68,5.13v9.31H226v-9a4.67,4.67,0,0,0-1.1-3.32,3.94,3.94,0,0,0-3-1.17,4.14,4.14,0,0,0-3.16,1.26,5.2,5.2,0,0,0-1.19,3.7v8.5h-3.31v-16h3.31V88a5.36,5.36,0,0,1,2.15-2.78,6.21,6.21,0,0,1,3.48-1A5.83,5.83,0,0,1,227.61,86Z"/><path class="cls-1" d="M239.71,97.07l4.52-12.56h3.54l-6.09,16h-4l-6.09-16h3.54Z"/><path class="cls-1" d="M261.69,85.3a7.08,7.08,0,0,1,2.9,2.84,9.65,9.65,0,0,1,0,8.73,7.08,7.08,0,0,1-2.9,2.84,8.76,8.76,0,0,1-4.18,1,8.68,8.68,0,0,1-4.16-1,7.17,7.17,0,0,1-2.9-2.86,9.5,9.5,0,0,1,0-8.71,7.19,7.19,0,0,1,2.9-2.84,8.68,8.68,0,0,1,4.16-1A8.76,8.76,0,0,1,261.69,85.3Zm-6.53,2.46a4.27,4.27,0,0,0-1.73,1.78,7,7,0,0,0,0,5.9,4.29,4.29,0,0,0,1.73,1.77,5,5,0,0,0,4.7,0,4.29,4.29,0,0,0,1.73-1.77,7,7,0,0,0,0-5.9,4.27,4.27,0,0,0-1.73-1.78,5,5,0,0,0-4.7,0Z"/><path class="cls-1" d="M268.94,78.48a2.14,2.14,0,0,1,1.54-.55,2.19,2.19,0,0,1,1.55.55,1.82,1.82,0,0,1,.59,1.39,1.73,1.73,0,0,1-.59,1.36,2.26,2.26,0,0,1-1.55.52,2.21,2.21,0,0,1-1.54-.52,1.74,1.74,0,0,1-.58-1.36A1.84,1.84,0,0,1,268.94,78.48Zm3.19,6v16h-3.31v-16Z"/><path class="cls-1" d="M288.37,85.95a7.07,7.07,0,0,1,2.52,4.45h-3.51A3.76,3.76,0,0,0,286,88a4.47,4.47,0,0,0-2.8-.86A4.21,4.21,0,0,0,280,88.53a6.8,6.8,0,0,0,0,7.93,4.19,4.19,0,0,0,3.19,1.36A4.42,4.42,0,0,0,286,97a3.81,3.81,0,0,0,1.41-2.38h3.51A7.13,7.13,0,0,1,288.37,99a7.86,7.86,0,0,1-5.13,1.65,8.34,8.34,0,0,1-4.1-1,7,7,0,0,1-2.8-2.84,9.89,9.89,0,0,1,0-8.73,7,7,0,0,1,2.8-2.84,8.34,8.34,0,0,1,4.1-1A7.91,7.91,0,0,1,288.37,85.95Z"/><path class="cls-1" d="M308.82,93.16h-12.3a5,5,0,0,0,1.36,3.65A4.46,4.46,0,0,0,301,98a4.6,4.6,0,0,0,2.8-.84,3.47,3.47,0,0,0,1.41-2.23h3.54a6.79,6.79,0,0,1-4,5,8.66,8.66,0,0,1-3.62.74,8.34,8.34,0,0,1-4.1-1,7,7,0,0,1-2.8-2.84,9.89,9.89,0,0,1,0-8.73,7,7,0,0,1,2.8-2.84,9.09,9.09,0,0,1,8.21,0,6.77,6.77,0,0,1,2.7,2.67,8.24,8.24,0,0,1,.83,5.21ZM305.06,89a3.74,3.74,0,0,0-1.62-1.57,5,5,0,0,0-2.25-.51,4.64,4.64,0,0,0-3.25,1.19,4.86,4.86,0,0,0-1.42,3.51h9.08A4.92,4.92,0,0,0,305.06,89Z"/><path class="cls-1" d="M333.23,100.49l-3.83-4.32a5.14,5.14,0,0,1-.29,1,4.41,4.41,0,0,1-1.75,2.54,5.33,5.33,0,0,1-3.21,1,6.73,6.73,0,0,1-3.31-.78,5.54,5.54,0,0,1-2.2-2.17,6.39,6.39,0,0,1-.78-3.19,6.63,6.63,0,0,1,.71-3.16,5,5,0,0,1,1.93-2,5.34,5.34,0,0,1,2.7-.7h.2l-.38-.52A7.86,7.86,0,0,1,322,86.41a4.74,4.74,0,0,1-.38-1.93,4.49,4.49,0,0,1,.62-2.29,4.53,4.53,0,0,1,1.86-1.73,6.22,6.22,0,0,1,2.94-.65A5.63,5.63,0,0,1,330.9,81a5.36,5.36,0,0,1,1.7,3.07,6.52,6.52,0,0,1,.2,2.06h-3.13v-.32a5.14,5.14,0,0,0,0-.64,2.72,2.72,0,0,0-.71-1.91,2.5,2.5,0,0,0-1.87-.7,2.3,2.3,0,0,0-1.73.64,2.16,2.16,0,0,0-.62,1.57,2.89,2.89,0,0,0,.3,1.36,8.63,8.63,0,0,0,.94,1.36l10.67,13ZM326.52,97a3.11,3.11,0,0,0,.91-2.32,3.25,3.25,0,0,0-.51-1.78,3.67,3.67,0,0,0-3.06-1.7,3.09,3.09,0,0,0-2.26.86,3.72,3.72,0,0,0,.13,4.93,3.51,3.51,0,0,0,2.45.91A3.19,3.19,0,0,0,326.52,97Z"/><path class="cls-1" d="M348.86,92.55v7.95h-3.31V80h7a7.5,7.5,0,0,1,5.32,1.68,6,6,0,0,1,1.78,4.61,5.88,5.88,0,0,1-1.83,4.57,7.57,7.57,0,0,1-5.28,1.67Zm7.4-6.24a3.47,3.47,0,0,0-1-2.65,4.45,4.45,0,0,0-3.12-.91h-3.31v7.1h3.31Q356.26,89.85,356.26,86.31Z"/><path class="cls-1" d="M372.64,85.38a5.78,5.78,0,0,1,2.17,2.84V84.51h3.31v16h-3.31V96.78a5.77,5.77,0,0,1-2.17,2.84,6.32,6.32,0,0,1-3.71,1.07,7.09,7.09,0,0,1-3.73-1,6.73,6.73,0,0,1-2.57-2.84,10.73,10.73,0,0,1,0-8.73,6.73,6.73,0,0,1,2.57-2.84,7.09,7.09,0,0,1,3.73-1A6.32,6.32,0,0,1,372.64,85.38Zm-6.22,3.23a6.34,6.34,0,0,0,0,7.74,4.6,4.6,0,0,0,3.52,1.41,4.79,4.79,0,0,0,2.49-.65,4.63,4.63,0,0,0,1.74-1.84,6.36,6.36,0,0,0,0-5.55,4.62,4.62,0,0,0-1.74-1.86,4.8,4.8,0,0,0-2.49-.65A4.6,4.6,0,0,0,366.42,88.62Z"/><path class="cls-1" d="M394.34,85.95a7.07,7.07,0,0,1,2.52,4.45h-3.51A3.75,3.75,0,0,0,391.94,88a4.47,4.47,0,0,0-2.8-.86A4.21,4.21,0,0,0,386,88.53a6.8,6.8,0,0,0,0,7.93,4.19,4.19,0,0,0,3.19,1.36,4.42,4.42,0,0,0,2.8-.87,3.81,3.81,0,0,0,1.41-2.38h3.51A7.13,7.13,0,0,1,394.34,99a7.86,7.86,0,0,1-5.13,1.65,8.34,8.34,0,0,1-4.1-1,7,7,0,0,1-2.8-2.84,9.9,9.9,0,0,1,0-8.73,7,7,0,0,1,2.8-2.84,8.34,8.34,0,0,1,4.1-1A7.91,7.91,0,0,1,394.34,85.95Z"/><path class="cls-1" d="M409.1,100.49l-5.74-7.11v7.11H400V79h3.31v12.3L409,84.51h4l-7,7.95,7.13,8Z"/><path class="cls-1" d="M415.45,78.48a2.14,2.14,0,0,1,1.54-.55,2.19,2.19,0,0,1,1.55.55,1.82,1.82,0,0,1,.59,1.39,1.73,1.73,0,0,1-.59,1.36,2.26,2.26,0,0,1-1.55.52,2.21,2.21,0,0,1-1.54-.52,1.75,1.75,0,0,1-.58-1.36A1.84,1.84,0,0,1,415.45,78.48Zm3.19,6v16h-3.31v-16Z"/><path class="cls-1" d="M436,86a7.24,7.24,0,0,1,1.68,5.13v9.31h-3.31v-9a4.67,4.67,0,0,0-1.1-3.32,3.94,3.94,0,0,0-3-1.17,4.14,4.14,0,0,0-3.16,1.26,5.2,5.2,0,0,0-1.19,3.7v8.5h-3.31v-16h3.31V88a5.36,5.36,0,0,1,2.15-2.78,6.21,6.21,0,0,1,3.48-1A5.83,5.83,0,0,1,436,86Z"/><path class="cls-1" d="M451.7,85.38a5.78,5.78,0,0,1,2.17,2.84V84.51h3.31v16.15a8.33,8.33,0,0,1-.91,4,6.68,6.68,0,0,1-2.62,2.71,8,8,0,0,1-4.06,1,8.68,8.68,0,0,1-5.44-1.59,6.89,6.89,0,0,1-2.6-4.32h3.28a3.9,3.9,0,0,0,1.57,2.22,5.11,5.11,0,0,0,3,.8,4.51,4.51,0,0,0,3.25-1.22,4.66,4.66,0,0,0,1.28-3.54V96.78a5.77,5.77,0,0,1-2.17,2.84A6.32,6.32,0,0,1,448,100.7a7.09,7.09,0,0,1-3.73-1,6.73,6.73,0,0,1-2.57-2.84,10.73,10.73,0,0,1,0-8.73,6.73,6.73,0,0,1,2.57-2.84,7.09,7.09,0,0,1,3.73-1A6.32,6.32,0,0,1,451.7,85.38Zm-6.22,3.23a6.34,6.34,0,0,0,0,7.74A4.6,4.6,0,0,0,449,97.77a4.79,4.79,0,0,0,2.49-.65,4.63,4.63,0,0,0,1.74-1.84,6.36,6.36,0,0,0,0-5.55,4.62,4.62,0,0,0-1.74-1.86,4.8,4.8,0,0,0-2.49-.65A4.6,4.6,0,0,0,445.48,88.62Z"/><path class="cls-1" d="M480.67,97.84a5.27,5.27,0,0,1-2.2,2.07,7.67,7.67,0,0,1-3.62.78,9.08,9.08,0,0,1-3.74-.74,6.5,6.5,0,0,1-2.64-2.07,5.88,5.88,0,0,1-1.13-3.07h3.54A3.63,3.63,0,0,0,472,97.1a3.72,3.72,0,0,0,2.68,1,3.19,3.19,0,0,0,2.33-.81,2.8,2.8,0,0,0,.83-2.09,2.69,2.69,0,0,0-.61-1.81,4.28,4.28,0,0,0-1.51-1.12q-.9-.41-2.46-.93a21.48,21.48,0,0,1-3.12-1.22,5.67,5.67,0,0,1-2-1.77,5.07,5.07,0,0,1-.84-3,5.19,5.19,0,0,1,.81-2.9,5.28,5.28,0,0,1,2.32-1.93,8.37,8.37,0,0,1,3.48-.68,7.62,7.62,0,0,1,5,1.51,5.68,5.68,0,0,1,2.1,3.94h-3.57a3.48,3.48,0,0,0-1.09-2,3.41,3.41,0,0,0-2.42-.83,3.35,3.35,0,0,0-2.23.71,2.53,2.53,0,0,0-.84,2,2.57,2.57,0,0,0,.58,1.73,4,4,0,0,0,1.46,1.07q.88.39,2.42.91a21.21,21.21,0,0,1,3.18,1.23,5.76,5.76,0,0,1,2.09,1.81A5.25,5.25,0,0,1,481.4,95,5.62,5.62,0,0,1,480.67,97.84Z"/><path class="cls-1" d="M488,79v21.46H484.7V79Z"/><path class="cls-1" d="M492.13,78.48a2.14,2.14,0,0,1,1.54-.55,2.19,2.19,0,0,1,1.55.55,1.82,1.82,0,0,1,.59,1.39,1.73,1.73,0,0,1-.59,1.36,2.26,2.26,0,0,1-1.55.52,2.21,2.21,0,0,1-1.54-.52,1.75,1.75,0,0,1-.58-1.36A1.84,1.84,0,0,1,492.13,78.48Zm3.19,6v16H492v-16Z"/><path class="cls-1" d="M512.21,85.3a6.73,6.73,0,0,1,2.57,2.84,10.72,10.72,0,0,1,0,8.73,6.73,6.73,0,0,1-2.57,2.84,7.08,7.08,0,0,1-3.73,1,6.32,6.32,0,0,1-3.71-1.07,5.61,5.61,0,0,1-2.15-2.84v11.31h-3.31V84.51h3.31v3.71a5.61,5.61,0,0,1,2.15-2.84,6.32,6.32,0,0,1,3.71-1.07A7.08,7.08,0,0,1,512.21,85.3ZM505,87.86a4.61,4.61,0,0,0-1.74,1.86,6.36,6.36,0,0,0,0,5.55A4.62,4.62,0,0,0,505,97.11a4.8,4.8,0,0,0,2.49.65A4.65,4.65,0,0,0,511,96.36a6.26,6.26,0,0,0,0-7.73,4.63,4.63,0,0,0-3.54-1.42A4.81,4.81,0,0,0,505,87.86Z"/></g></g></svg>