<svg xmlns="http://www.w3.org/2000/svg" xmlns:xlink="http://www.w3.org/1999/xlink" viewBox="0 0 590.89 99.44"><defs><style>.cls-1{fill:#212428;}.cls-2{fill:#488eff;}.cls-3{fill:url(#linear-gradient);}.cls-4{fill:#fff;}</style><linearGradient id="linear-gradient" x1="19.99" y1="76" x2="8.67" y2="-1.1" gradientUnits="userSpaceOnUse"><stop offset="0.11" stop-color="#374051"/><stop offset="0.67" stop-color="#212428"/></linearGradient></defs><title>Asset 2</title><g id="Layer_2" data-name="Layer 2"><g id="Layer_1-2" data-name="Layer 1"><path class="cls-1" d="M150.79,31.53a48,48,0,0,0,2.75,8.24c1.1,2.75,1.66,6,2.76,8.79a54,54,0,0,1,2.75,8.79c1.1,2.75,1.65,5.49,2.75,8.24.55-2.75,1.65-5.49,2.2-8.79s1.65-6.59,2.2-9.89,1.65-7.14,2.2-10.43,1.1-7.15,1.65-10.44H180c-1.65,9.34-3.85,18.68-6,26.92s-4.4,17-7.15,24.72H157.4a328.27,328.27,0,0,1-11-33c-1.65,6-3.85,11.53-5.5,17s-3.85,11-5.5,15.93h-8.8c-2.75-7.69-5-15.93-7.15-24.72S115.58,35.38,113.38,26h9.91c.55,3.29,1.1,7.14,1.65,10.44s1.65,7.14,2.2,10.43,1.65,6.6,2.2,9.89,1.65,6,2.2,8.79c1.1-2.75,1.65-5.49,2.75-8.24A41.12,41.12,0,0,0,137,48.56c1.1-2.75,1.65-6,2.75-8.79a45.5,45.5,0,0,0,2.2-8.24Z"/><path class="cls-1" d="M221.76,57.9a33.2,33.2,0,0,1-1.1,8.24,19,19,0,0,1-3.85,6.59,24.42,24.42,0,0,1-6.05,4.4,18.9,18.9,0,0,1-15.4,0c-2.21-1.1-4.41-2.2-6.06-4.4a19,19,0,0,1-3.85-6.59,22,22,0,0,1-1.65-8.24,18.32,18.32,0,0,1,1.65-8.24c1.1-2.2,2.2-4.94,3.85-6.59a24.29,24.29,0,0,1,6.06-4.4,18.79,18.79,0,0,1,15.4,0c2.2,1.1,4.4,2.2,6.05,4.4a19,19,0,0,1,3.85,6.59A37.33,37.33,0,0,1,221.76,57.9Zm-9.35,0a15.7,15.7,0,0,0-2.75-9.34c-1.65-2.2-3.85-3.3-7.15-3.3s-5.5,1.1-7.15,3.3a15.7,15.7,0,0,0-2.76,9.34,15.72,15.72,0,0,0,2.76,9.34c1.65,2.2,3.85,3.29,7.15,3.29s5.5-1.09,7.15-3.29A15.72,15.72,0,0,0,212.41,57.9Z"/><path class="cls-1" d="M266.88,57.9a33.2,33.2,0,0,1-1.1,8.24,19.14,19.14,0,0,1-3.86,6.59,24.42,24.42,0,0,1-6.05,4.4,18.9,18.9,0,0,1-15.4,0c-2.2-1.1-4.4-2.2-6.05-4.4a19,19,0,0,1-3.85-6.59,22,22,0,0,1-1.65-8.24,18.32,18.32,0,0,1,1.65-8.24c1.1-2.2,2.2-4.94,3.85-6.59a24.42,24.42,0,0,1,6.05-4.4,18.79,18.79,0,0,1,15.4,0c2.2,1.1,4.4,2.2,6.05,4.4a19.14,19.14,0,0,1,3.86,6.59A37.33,37.33,0,0,1,266.88,57.9Zm-9.36,0a15.7,15.7,0,0,0-2.75-9.34c-1.65-2.2-3.85-3.3-7.15-3.3s-5.5,1.1-7.15,3.3a15.7,15.7,0,0,0-2.75,9.34,15.72,15.72,0,0,0,2.75,9.34c1.65,2.2,3.85,3.29,7.15,3.29s5.5-1.09,7.15-3.29A15.72,15.72,0,0,0,257.52,57.9Z"/><path class="cls-2" d="M276.78,25.49h9.35V77.68h-9.35Z"/><path class="cls-2" d="M298.23,39.77a56.79,56.79,0,0,1,6.61-1.65,50.32,50.32,0,0,1,9.35-.55,33.29,33.29,0,0,1,8.25,1.1,12,12,0,0,1,4.95,3.85A17.15,17.15,0,0,1,330.14,48a29,29,0,0,1,.55,7.14v22h-8.8V56.25a16.89,16.89,0,0,0-.55-5.49,8,8,0,0,0-1.1-3.85,5.47,5.47,0,0,0-2.75-2.19,8.16,8.16,0,0,0-3.85-.55h-3.85a11.19,11.19,0,0,0-2.75.55V76.58h-9.36V39.77Z"/><path class="cls-2" d="M351.05,77.68c-2.75-5-4.95-11-7.7-17.58a197.7,197.7,0,0,1-7.16-21.43h9.91c.55,2.2,1.1,4.4,1.65,7.14s1.65,4.95,2.2,7.7a27.7,27.7,0,0,0,2.75,7.14,30.74,30.74,0,0,1,2.2,6.59,46.1,46.1,0,0,0,2.2-6.59,27.42,27.42,0,0,1,2.75-7.14,31.53,31.53,0,0,0,2.2-7.7c.55-2.74,1.65-4.94,2.2-7.14h9.36a197.7,197.7,0,0,1-7.16,21.43c-2.75,6.59-4.95,12.63-7.7,17.58Z"/><path class="cls-2" d="M415.41,57.9a33.2,33.2,0,0,1-1.1,8.24,18.66,18.66,0,0,1-3.85,6.59,24.42,24.42,0,0,1-6,4.4,18.9,18.9,0,0,1-15.4,0c-2.2-1.1-4.4-2.2-6.05-4.4a18.81,18.81,0,0,1-3.85-6.59,22,22,0,0,1-1.65-8.24,18.32,18.32,0,0,1,1.65-8.24c1.1-2.2,2.19-4.94,3.85-6.59a24.42,24.42,0,0,1,6.05-4.4,18.79,18.79,0,0,1,15.4,0c2.2,1.1,4.4,2.2,6,4.4a18.66,18.66,0,0,1,3.85,6.59A37.33,37.33,0,0,1,415.41,57.9Zm-9.35,0a15.7,15.7,0,0,0-2.75-9.34c-1.65-2.2-3.85-3.3-7.15-3.3s-5.5,1.1-7.15,3.3a15.7,15.7,0,0,0-2.75,9.34A15.72,15.72,0,0,0,389,67.24c1.65,2.2,3.85,3.29,7.15,3.29s5.5-1.09,7.15-3.29A15.72,15.72,0,0,0,406.06,57.9Z"/><path class="cls-2" d="M434.67,27.14c0,1.65-.55,3.29-1.65,3.84a5.32,5.32,0,0,1-7.7,0,5,5,0,0,1-1.65-3.84,6.25,6.25,0,0,1,1.65-4.4,5.32,5.32,0,0,1,7.7,0A6.25,6.25,0,0,1,434.67,27.14Zm-1.1,50.54h-9.35v-39h9.35Z"/><path class="cls-2" d="M442.92,57.9a42.36,42.36,0,0,1,1.1-8.24,19,19,0,0,1,3.85-6.59,24.61,24.61,0,0,1,6.05-4.4A18.44,18.44,0,0,1,462.18,37a22.32,22.32,0,0,1,10.45,2.2l-2.2,7.69a7.82,7.82,0,0,0-3.3-1.1,10.72,10.72,0,0,0-4.4-.55,11.23,11.23,0,0,0-8.26,3.3c-2.19,2.2-2.74,5.49-2.74,9.34a15.79,15.79,0,0,0,2.74,9.34c1.66,2.2,5,3.29,8.81,3.29a10.91,10.91,0,0,0,4.4-.54,35.05,35.05,0,0,0,3.85-1.1l1.1,7.69a10.36,10.36,0,0,1-4.4,1.1,22.56,22.56,0,0,1-6.05.55,22.8,22.8,0,0,1-8.8-1.65,12.45,12.45,0,0,1-6.06-4.4,25.77,25.77,0,0,1-3.85-6.59C443.47,63.94,442.92,61.2,442.92,57.9Z"/><path class="cls-2" d="M478.68,58.45a25.64,25.64,0,0,1,1.65-9.34,19,19,0,0,1,3.85-6.59,14.27,14.27,0,0,1,6.06-3.85,14,14,0,0,1,6.6-1.1c5.5,0,9.9,1.65,12.65,5,3.3,3.29,4.4,8.24,4.4,14.83v3.3H488c0,3.29,1.1,5.49,3.31,7.14a14,14,0,0,0,8.8,2.75,20.62,20.62,0,0,0,6.05-.55,17,17,0,0,1,4.4-1.1l1.1,7.69c-.55,0-1.1.55-2.2.55s-1.65.55-2.75.55-2.2.55-3.85.55H499a20.94,20.94,0,0,1-8.8-1.65c-2.21-1.1-4.4-2.2-6.06-4.4a18.88,18.88,0,0,1-3.85-6.59A13.72,13.72,0,0,1,478.68,58.45Zm26.41-4.4a7,7,0,0,0-.55-3.29l-1.65-3.3a5.42,5.42,0,0,0-2.75-2.19,7,7,0,0,0-3.3-.55,8.16,8.16,0,0,0-3.85.55,5.42,5.42,0,0,0-2.75,2.19c-.56,1.1-1.11,1.65-1.66,2.75a7,7,0,0,0-.55,3.3h17.06Z"/><path class="cls-3" d="M29,17.76V71.47H11.17A11.18,11.18,0,0,1,0,60.29V14C0,6.48,4.83.57,11.12,0H15a13.91,13.91,0,0,1,9.66,5.38A18.05,18.05,0,0,1,29,17.76Z"/><path class="cls-2" d="M93.75,18V92.34a2.79,2.79,0,0,1-.83,2l-3.81,3.77a2.79,2.79,0,0,1-3.92,0l-2.68-2.65a2.79,2.79,0,0,0-3.92,0l-2.68,2.65a2.81,2.81,0,0,1-3.93,0l-2.59-2.57a2.8,2.8,0,0,0-4,.08l-2.67,2.87a2.8,2.8,0,0,1-4,.08L56.11,96a2.79,2.79,0,0,0-3.93,0L49.5,98.63a2.79,2.79,0,0,1-3.92,0L42.9,96A2.78,2.78,0,0,0,39,96L36.3,98.63a2.81,2.81,0,0,1-3.93,0l-3.8-3.76a2.78,2.78,0,0,1-.84-2V18c0-2.12-1.36-7.39-5.5-13A12.38,12.38,0,0,0,12.94,0H11.13a12.38,12.38,0,0,1,1.81,0H75.6A18.21,18.21,0,0,1,93.75,18Z"/><path class="cls-4" d="M79.1,25.05a1.32,1.32,0,0,1-1.31,1.32H51.42a1.32,1.32,0,0,1,0-2.64H77.79A1.32,1.32,0,0,1,79.1,25.05Z"/><path class="cls-4" d="M79.1,38.23a1.32,1.32,0,0,1-1.31,1.32H51.42a1.32,1.32,0,1,1,0-2.63H77.79A1.31,1.31,0,0,1,79.1,38.23Z"/><path class="cls-4" d="M44.83,50.1a2.64,2.64,0,1,1-2.64-2.64A2.64,2.64,0,0,1,44.83,50.1Z"/><path class="cls-4" d="M44.83,36.92a2.64,2.64,0,1,1-2.64-2.64A2.64,2.64,0,0,1,44.83,36.92Z"/><path class="cls-4" d="M44.83,23.73a2.64,2.64,0,1,1-2.64-2.64A2.64,2.64,0,0,1,44.83,23.73Z"/><path class="cls-4" d="M44.83,63.28a2.64,2.64,0,1,1-2.64-2.63A2.64,2.64,0,0,1,44.83,63.28Z"/><path class="cls-4" d="M79.1,51.42a1.32,1.32,0,0,1-1.31,1.32H51.42a1.32,1.32,0,0,1,0-2.64H77.79A1.32,1.32,0,0,1,79.1,51.42Z"/><path class="cls-4" d="M79.1,64.6a1.32,1.32,0,0,1-1.31,1.32H51.42a1.32,1.32,0,1,1,0-2.64H77.79A1.32,1.32,0,0,1,79.1,64.6Z"/><rect class="cls-2" x="513.89" y="11.52" width="77" height="43" rx="21.5"/><path class="cls-4" d="M533.44,22h3.79V39h7.88V42.4H533.44Z"/><path class="cls-4" d="M549.74,21a2.18,2.18,0,1,1,0,4.36,2.19,2.19,0,1,1,0-4.36Zm1.78,21.37h-3.59V28.56h3.59Z"/><path class="cls-4" d="M560.35,28.56h2.93v2.9h-2.93V42.4h-3.59V31.46h-2.51v-2.9h2.51V23.28h3.59Z"/><path class="cls-4" d="M579.11,36.68H568.56c.24,1.86,1.78,3,3.82,3a3.91,3.91,0,0,0,3.47-1.78c.86.48,1.84,1,2.76,1.48A7.42,7.42,0,0,1,565,35.43a6.93,6.93,0,0,1,7.17-7.17,6.82,6.82,0,0,1,7,7.17C579.17,35.79,579.14,36.35,579.11,36.68Zm-3.47-2.46a3.29,3.29,0,0,0-3.46-2.94,3.4,3.4,0,0,0-3.65,2.94Z"/></g></g></svg>